<mxfile host="app.diagrams.net" modified="2023-10-25T05:09:13.765Z" agent="Mozilla/5.0 (Windows NT 10.0; Win64; x64) AppleWebKit/537.36 (KHTML, like Gecko) Chrome/118.0.0.0 Safari/537.36" etag="xGpvFL_uaivKtGip1qQA" version="21.7.5" type="github">
  <diagram name="第 1 页" id="xnEYWMF3NsNJUKumpT2D">
    <mxGraphModel dx="600" dy="332" grid="1" gridSize="10" guides="1" tooltips="1" connect="1" arrows="1" fold="1" page="1" pageScale="1" pageWidth="827" pageHeight="1169" math="0" shadow="0">
      <root>
        <mxCell id="0" />
        <mxCell id="1" parent="0" />
        <mxCell id="RkmTadfdWSeT7kzXS7Pc-8" style="edgeStyle=orthogonalEdgeStyle;rounded=0;orthogonalLoop=1;jettySize=auto;html=1;exitX=0.5;exitY=1;exitDx=0;exitDy=0;" edge="1" parent="1" source="RkmTadfdWSeT7kzXS7Pc-1" target="RkmTadfdWSeT7kzXS7Pc-7">
          <mxGeometry relative="1" as="geometry" />
        </mxCell>
        <mxCell id="RkmTadfdWSeT7kzXS7Pc-1" value="s" style="ellipse;whiteSpace=wrap;html=1;aspect=fixed;" vertex="1" parent="1">
          <mxGeometry x="370" y="120" width="30" height="30" as="geometry" />
        </mxCell>
        <mxCell id="RkmTadfdWSeT7kzXS7Pc-11" style="rounded=0;orthogonalLoop=1;jettySize=auto;html=1;exitX=0;exitY=1;exitDx=0;exitDy=0;entryX=1;entryY=0;entryDx=0;entryDy=0;" edge="1" parent="1" source="RkmTadfdWSeT7kzXS7Pc-2" target="RkmTadfdWSeT7kzXS7Pc-4">
          <mxGeometry relative="1" as="geometry" />
        </mxCell>
        <mxCell id="RkmTadfdWSeT7kzXS7Pc-2" value="c" style="ellipse;whiteSpace=wrap;html=1;aspect=fixed;" vertex="1" parent="1">
          <mxGeometry x="440" y="270" width="30" height="30" as="geometry" />
        </mxCell>
        <mxCell id="RkmTadfdWSeT7kzXS7Pc-12" style="rounded=0;orthogonalLoop=1;jettySize=auto;html=1;exitX=1;exitY=1;exitDx=0;exitDy=0;entryX=0;entryY=0;entryDx=0;entryDy=0;" edge="1" parent="1" source="RkmTadfdWSeT7kzXS7Pc-3" target="RkmTadfdWSeT7kzXS7Pc-4">
          <mxGeometry relative="1" as="geometry" />
        </mxCell>
        <mxCell id="RkmTadfdWSeT7kzXS7Pc-3" value="b" style="ellipse;whiteSpace=wrap;html=1;aspect=fixed;" vertex="1" parent="1">
          <mxGeometry x="300" y="270" width="30" height="30" as="geometry" />
        </mxCell>
        <mxCell id="RkmTadfdWSeT7kzXS7Pc-4" value="t" style="ellipse;whiteSpace=wrap;html=1;aspect=fixed;" vertex="1" parent="1">
          <mxGeometry x="370" y="340" width="30" height="30" as="geometry" />
        </mxCell>
        <mxCell id="RkmTadfdWSeT7kzXS7Pc-9" style="rounded=0;orthogonalLoop=1;jettySize=auto;html=1;exitX=0.5;exitY=1;exitDx=0;exitDy=0;entryX=1;entryY=0;entryDx=0;entryDy=0;" edge="1" parent="1" source="RkmTadfdWSeT7kzXS7Pc-7" target="RkmTadfdWSeT7kzXS7Pc-3">
          <mxGeometry relative="1" as="geometry" />
        </mxCell>
        <mxCell id="RkmTadfdWSeT7kzXS7Pc-10" style="rounded=0;orthogonalLoop=1;jettySize=auto;html=1;exitX=0.5;exitY=1;exitDx=0;exitDy=0;entryX=0;entryY=0;entryDx=0;entryDy=0;" edge="1" parent="1" source="RkmTadfdWSeT7kzXS7Pc-7" target="RkmTadfdWSeT7kzXS7Pc-2">
          <mxGeometry relative="1" as="geometry" />
        </mxCell>
        <mxCell id="RkmTadfdWSeT7kzXS7Pc-7" value="a" style="ellipse;whiteSpace=wrap;html=1;aspect=fixed;" vertex="1" parent="1">
          <mxGeometry x="370" y="200" width="30" height="30" as="geometry" />
        </mxCell>
        <mxCell id="RkmTadfdWSeT7kzXS7Pc-13" value="10" style="text;html=1;align=center;verticalAlign=middle;resizable=0;points=[];autosize=1;strokeColor=none;fillColor=none;" vertex="1" parent="1">
          <mxGeometry x="380" y="158" width="40" height="30" as="geometry" />
        </mxCell>
        <mxCell id="RkmTadfdWSeT7kzXS7Pc-14" value="2" style="text;html=1;align=center;verticalAlign=middle;resizable=0;points=[];autosize=1;strokeColor=none;fillColor=none;" vertex="1" parent="1">
          <mxGeometry x="325" y="228" width="30" height="30" as="geometry" />
        </mxCell>
        <mxCell id="RkmTadfdWSeT7kzXS7Pc-15" value="2" style="text;html=1;align=center;verticalAlign=middle;resizable=0;points=[];autosize=1;strokeColor=none;fillColor=none;" vertex="1" parent="1">
          <mxGeometry x="415" y="228" width="30" height="30" as="geometry" />
        </mxCell>
        <mxCell id="RkmTadfdWSeT7kzXS7Pc-16" value="1" style="text;html=1;align=center;verticalAlign=middle;resizable=0;points=[];autosize=1;strokeColor=none;fillColor=none;" vertex="1" parent="1">
          <mxGeometry x="425" y="308" width="30" height="30" as="geometry" />
        </mxCell>
        <mxCell id="RkmTadfdWSeT7kzXS7Pc-17" value="1" style="text;html=1;align=center;verticalAlign=middle;resizable=0;points=[];autosize=1;strokeColor=none;fillColor=none;" vertex="1" parent="1">
          <mxGeometry x="315" y="308" width="30" height="30" as="geometry" />
        </mxCell>
      </root>
    </mxGraphModel>
  </diagram>
</mxfile>
